# xmcd
#
# Track frame offsets:
#	150
#	24325
#	43649
#	55273
#	70826
#	94828
#	111312
#	131520
#	150303
#	165247
#	183927
#	213513
#	230155
#
# Disc length: 3433 seconds
#
# Revision: 1
# Processed by: cddbd v1.5.2PL0 Copyright (c) Steve Scherf et al.
# Submitted via: audiograbber 1.83.01
#
DISCID=a70d670d
DTITLE=Oreo Blue - The Trio
DYEAR=2007
DGENRE=Blues
TTITLE0=Blah-Blah, Woof-Woof
TTITLE1=I-540
TTITLE2=End Of The Line
TTITLE3=Behind The Sun
TTITLE4=I Been Playin'
TTITLE5=Home Run
TTITLE6=Old Before My Time
TTITLE7=You Said Goodbye
TTITLE8=The Thing About Love
TTITLE9=Don't Want To Be Lonely
TTITLE10=Sunrise
TTITLE11=Ten Million Country Songs
TTITLE12=The One I Love
EXTD=Oreo Blue is: Gary Lee Hutchinson (Guitars, Lead Vocals), Rod Williamson (
EXTD=Fender Bass) and Stephen Boufreaux (Drums, Lead Vocals and All Harmony Voc
EXTD=als)
EXTT0=
EXTT1=
EXTT2=
EXTT3=
EXTT4=
EXTT5=
EXTT6=
EXTT7=
EXTT8=
EXTT9=
EXTT10=
EXTT11=
EXTT12=
PLAYORDER=
